<svg xmlns="http://www.w3.org/2000/svg" xmlns:xlink="http://www.w3.org/1999/xlink" width="250" zoomAndPan="magnify" viewBox="0 0 187.5 187.499992" height="250" preserveAspectRatio="xMidYMid meet" version="1.0"><defs><g><g id="id1"/></g><clipPath id="id2"><path d="M 0 0 L 187 0 L 187 187 L 0 187 Z M 0 0 " clip-rule="nonzero"/></clipPath><clipPath id="id3"><path d="M 33.324219 35.425781 L 150 35.425781 L 150 152.425781 L 33.324219 152.425781 Z M 33.324219 35.425781 " clip-rule="nonzero"/></clipPath></defs><g clip-path="url(#id2)"><path fill="rgb(100%, 100%, 100%)" d="M 0 0 L 187.5 0 L 187.5 195 L 0 195 Z M 0 0 " fill-opacity="1" fill-rule="nonzero"/><path fill="rgb(100%, 100%, 100%)" d="M 0 0 L 187.5 0 L 187.5 187.5 L 0 187.5 Z M 0 0 " fill-opacity="1" fill-rule="nonzero"/><path fill="rgb(100%, 100%, 100%)" d="M 0 0 L 187.5 0 L 187.5 187.5 L 0 187.5 Z M 0 0 " fill-opacity="1" fill-rule="nonzero"/><path fill="rgb(100%, 100%, 100%)" d="M 0 0 L 187.5 0 L 187.5 187.5 L 0 187.5 Z M 0 0 " fill-opacity="1" fill-rule="nonzero"/></g><g clip-path="url(#id3)"><path fill="rgb(0%, 0%, 0%)" d="M 149.90625 37.007812 C 149.902344 36.976562 149.902344 36.957031 149.902344 36.941406 C 149.902344 36.921875 149.894531 36.90625 149.894531 36.886719 C 149.890625 36.847656 149.882812 36.808594 149.875 36.769531 C 149.871094 36.746094 149.867188 36.71875 149.863281 36.691406 C 149.855469 36.671875 149.847656 36.65625 149.84375 36.636719 C 149.832031 36.601562 149.820312 36.570312 149.808594 36.535156 C 149.796875 36.511719 149.789062 36.484375 149.777344 36.460938 C 149.765625 36.441406 149.753906 36.421875 149.742188 36.402344 C 149.730469 36.375 149.714844 36.347656 149.695312 36.320312 C 149.683594 36.296875 149.667969 36.273438 149.652344 36.25 C 149.636719 36.230469 149.621094 36.210938 149.605469 36.195312 C 149.585938 36.171875 149.570312 36.152344 149.550781 36.128906 C 149.53125 36.109375 149.511719 36.089844 149.492188 36.070312 C 149.46875 36.050781 149.449219 36.035156 149.429688 36.015625 C 149.410156 36 149.390625 35.984375 149.371094 35.96875 C 149.347656 35.953125 149.324219 35.9375 149.300781 35.921875 C 149.273438 35.90625 149.246094 35.890625 149.21875 35.875 C 149.199219 35.867188 149.183594 35.855469 149.160156 35.84375 C 149.136719 35.832031 149.113281 35.824219 149.085938 35.8125 C 149.054688 35.800781 149.019531 35.789062 148.984375 35.777344 C 148.964844 35.773438 148.949219 35.765625 148.929688 35.757812 C 148.90625 35.753906 148.878906 35.75 148.851562 35.746094 C 148.8125 35.738281 148.777344 35.730469 148.738281 35.726562 C 148.71875 35.726562 148.699219 35.71875 148.679688 35.71875 C 148.671875 35.71875 148.621094 35.714844 148.535156 35.710938 C 147.378906 35.660156 139.71875 35.433594 129.101562 38.109375 C 128.960938 38.144531 128.816406 38.179688 128.675781 38.21875 C 128.511719 38.261719 128.347656 38.304688 128.179688 38.347656 C 127.949219 38.40625 127.71875 38.46875 127.488281 38.53125 C 127.375 38.5625 127.265625 38.59375 127.152344 38.625 C 126.789062 38.726562 126.425781 38.828125 126.054688 38.933594 C 113.683594 42.539062 95.96875 50.851562 81.472656 69.972656 C 76.949219 69.355469 68.765625 69.160156 59.941406 73.378906 C 48.457031 78.871094 39.582031 89.953125 33.5625 106.324219 C 33.359375 106.875 33.550781 107.496094 34.03125 107.839844 C 34.257812 108 34.519531 108.082031 34.785156 108.082031 C 35.078125 108.082031 35.371094 107.980469 35.609375 107.785156 C 35.792969 107.636719 53.484375 93.308594 66.523438 97.257812 C 65.949219 98.746094 65.386719 100.269531 64.847656 101.824219 L 64.117188 101.089844 C 63.609375 100.582031 62.785156 100.582031 62.277344 101.089844 L 58.460938 104.914062 C 57.953125 105.421875 57.953125 106.25 58.460938 106.757812 L 61.5625 109.871094 L 56.574219 114.871094 C 56.066406 115.382812 56.066406 116.207031 56.574219 116.71875 L 69.105469 129.277344 C 69.359375 129.535156 69.691406 129.660156 70.027344 129.660156 C 70.359375 129.660156 70.691406 129.535156 70.945312 129.277344 L 75.9375 124.277344 L 79.035156 127.386719 C 79.289062 127.640625 79.625 127.765625 79.957031 127.765625 C 80.289062 127.765625 80.625 127.640625 80.878906 127.386719 L 84.691406 123.5625 C 85.199219 123.050781 85.199219 122.226562 84.691406 121.714844 L 83.964844 120.984375 C 85.511719 120.445312 87.03125 119.882812 88.515625 119.304688 C 92.457031 132.375 78.164062 150.113281 78.015625 150.296875 C 77.644531 150.75 77.621094 151.398438 77.960938 151.878906 C 78.210938 152.230469 78.609375 152.425781 79.023438 152.425781 C 79.171875 152.425781 79.324219 152.402344 79.472656 152.347656 C 95.800781 146.316406 106.859375 137.417969 112.335938 125.902344 C 116.542969 117.054688 116.347656 108.851562 115.734375 104.316406 C 134.808594 89.785156 143.097656 72.023438 146.695312 59.621094 C 150.3125 47.132812 149.953125 37.925781 149.90625 37.007812 Z M 37.664062 103.035156 C 43.347656 89.621094 51.207031 80.445312 61.0625 75.734375 C 68.433594 72.210938 75.316406 71.992188 79.699219 72.394531 C 74.972656 79.050781 70.875 86.582031 67.492188 94.828125 C 56.785156 91.421875 43.890625 98.777344 37.664062 103.035156 Z M 70.023438 126.511719 L 59.335938 115.792969 L 63.40625 111.714844 L 74.09375 122.429688 Z M 79.957031 124.617188 L 76.855469 121.507812 L 64.328125 108.949219 C 64.324219 108.945312 64.324219 108.945312 64.324219 108.945312 L 61.222656 105.835938 L 63.195312 103.859375 L 81.929688 122.640625 Z M 109.984375 124.777344 C 105.285156 134.660156 96.132812 142.539062 82.753906 148.238281 C 87 141.996094 94.335938 129.070312 90.941406 118.335938 C 99.167969 114.941406 106.679688 110.835938 113.316406 106.097656 C 113.71875 110.488281 113.5 117.390625 109.984375 124.777344 Z M 113.554688 102.695312 C 106.363281 108.082031 98.039062 112.6875 88.8125 116.386719 C 86.601562 117.273438 84.28125 118.125 81.910156 118.929688 L 66.898438 103.878906 C 67.699219 101.507812 68.550781 99.183594 69.433594 96.960938 C 73.125 87.710938 77.71875 79.363281 83.089844 72.15625 C 96.707031 53.882812 113.355469 45.605469 125.394531 41.859375 C 126.328125 46.398438 128.535156 50.511719 131.839844 53.824219 C 135.144531 57.136719 139.246094 59.347656 143.773438 60.285156 C 140.039062 72.355469 131.78125 89.046875 113.554688 102.695312 Z M 147.328125 38.492188 C 147.328125 38.554688 147.328125 38.625 147.324219 38.691406 C 147.324219 38.738281 147.324219 38.785156 147.324219 38.835938 C 147.324219 38.953125 147.324219 39.074219 147.320312 39.199219 C 147.320312 39.234375 147.320312 39.277344 147.316406 39.3125 C 147.316406 39.414062 147.3125 39.515625 147.3125 39.621094 C 147.308594 39.675781 147.308594 39.730469 147.304688 39.785156 C 147.304688 39.886719 147.300781 39.988281 147.296875 40.09375 C 147.296875 40.148438 147.292969 40.203125 147.292969 40.261719 C 147.285156 40.414062 147.28125 40.570312 147.273438 40.730469 C 147.269531 40.75 147.269531 40.769531 147.269531 40.789062 C 147.261719 40.949219 147.253906 41.117188 147.246094 41.289062 C 147.242188 41.347656 147.238281 41.402344 147.234375 41.460938 C 147.226562 41.597656 147.21875 41.734375 147.210938 41.875 C 147.207031 41.933594 147.203125 41.996094 147.199219 42.058594 C 147.1875 42.230469 147.175781 42.40625 147.164062 42.585938 C 147.160156 42.617188 147.160156 42.644531 147.15625 42.671875 C 147.140625 42.878906 147.125 43.09375 147.105469 43.308594 C 147.101562 43.371094 147.09375 43.433594 147.089844 43.496094 C 147.074219 43.660156 147.0625 43.824219 147.042969 43.996094 C 147.039062 44.066406 147.03125 44.136719 147.023438 44.210938 C 147.007812 44.402344 146.988281 44.59375 146.964844 44.789062 C 146.960938 44.835938 146.957031 44.878906 146.953125 44.921875 C 146.925781 45.164062 146.898438 45.410156 146.871094 45.660156 C 146.863281 45.722656 146.855469 45.785156 146.847656 45.847656 C 146.824219 46.039062 146.800781 46.234375 146.777344 46.433594 C 146.765625 46.515625 146.757812 46.597656 146.746094 46.679688 C 146.71875 46.882812 146.691406 47.089844 146.664062 47.300781 C 146.652344 47.363281 146.644531 47.421875 146.636719 47.484375 C 146.597656 47.757812 146.558594 48.03125 146.515625 48.3125 C 146.507812 48.367188 146.5 48.421875 146.492188 48.476562 C 146.457031 48.703125 146.421875 48.933594 146.382812 49.167969 C 146.367188 49.253906 146.355469 49.339844 146.339844 49.425781 C 146.304688 49.648438 146.265625 49.875 146.226562 50.101562 C 146.214844 50.175781 146.199219 50.25 146.1875 50.324219 C 146.132812 50.625 146.078125 50.929688 146.019531 51.238281 C 146.015625 51.265625 146.007812 51.296875 146.003906 51.328125 C 145.949219 51.601562 145.894531 51.882812 145.839844 52.164062 C 145.820312 52.25 145.804688 52.339844 145.785156 52.425781 C 145.738281 52.667969 145.6875 52.914062 145.632812 53.160156 C 145.617188 53.242188 145.597656 53.324219 145.582031 53.40625 C 145.441406 54.054688 145.289062 54.714844 145.125 55.386719 C 145.105469 55.472656 145.082031 55.5625 145.0625 55.648438 C 144.996094 55.910156 144.929688 56.171875 144.863281 56.4375 C 144.839844 56.527344 144.816406 56.613281 144.792969 56.703125 C 144.707031 57.042969 144.617188 57.386719 144.519531 57.730469 C 144.519531 57.734375 144.519531 57.734375 144.519531 57.738281 C 144.515625 57.75 144.511719 57.761719 144.507812 57.777344 C 140.398438 56.964844 136.671875 54.976562 133.683594 51.976562 C 130.691406 48.976562 128.707031 45.246094 127.898438 41.125 C 128.269531 41.023438 128.632812 40.925781 128.996094 40.828125 C 129.058594 40.8125 129.117188 40.796875 129.175781 40.785156 C 129.492188 40.699219 129.808594 40.621094 130.125 40.542969 C 130.152344 40.535156 130.183594 40.527344 130.214844 40.519531 C 138.40625 38.515625 144.785156 38.292969 147.328125 38.296875 C 147.328125 38.3125 147.328125 38.328125 147.328125 38.34375 C 147.328125 38.390625 147.328125 38.441406 147.328125 38.492188 Z M 147.328125 38.492188 " fill-opacity="1" fill-rule="nonzero"/></g><path fill="rgb(0%, 0%, 0%)" d="M 111.042969 62.976562 C 104.609375 62.976562 99.375 68.222656 99.375 74.671875 C 99.375 81.121094 104.609375 86.371094 111.042969 86.371094 C 117.476562 86.371094 122.710938 81.121094 122.710938 74.671875 C 122.710938 68.222656 117.476562 62.976562 111.042969 62.976562 Z M 111.042969 83.757812 C 106.046875 83.757812 101.980469 79.683594 101.980469 74.671875 C 101.980469 69.664062 106.046875 65.585938 111.042969 65.585938 C 116.042969 65.585938 120.105469 69.664062 120.105469 74.671875 C 120.105469 79.683594 116.039062 83.757812 111.042969 83.757812 Z M 111.042969 83.757812 " fill-opacity="1" fill-rule="nonzero"/><path fill="rgb(0%, 0%, 0%)" d="M 59.71875 126.128906 C 59.207031 125.617188 58.382812 125.617188 57.875 126.128906 L 41.53125 142.511719 C 41.023438 143.023438 41.023438 143.847656 41.53125 144.359375 C 41.785156 144.613281 42.117188 144.742188 42.453125 144.742188 C 42.785156 144.742188 43.117188 144.613281 43.375 144.359375 L 59.71875 127.972656 C 60.226562 127.464844 60.226562 126.636719 59.71875 126.128906 Z M 59.71875 126.128906 " fill-opacity="1" fill-rule="nonzero"/><path fill="rgb(0%, 0%, 0%)" d="M 65.988281 132.414062 C 65.480469 131.90625 64.65625 131.90625 64.148438 132.414062 L 53.472656 143.113281 C 52.964844 143.625 52.964844 144.449219 53.472656 144.960938 C 53.730469 145.214844 54.0625 145.34375 54.394531 145.34375 C 54.726562 145.34375 55.0625 145.214844 55.316406 144.960938 L 65.988281 134.261719 C 66.496094 133.75 66.496094 132.925781 65.988281 132.414062 Z M 65.988281 132.414062 " fill-opacity="1" fill-rule="nonzero"/><path fill="rgb(0%, 0%, 0%)" d="M 77.496094 133.453125 C 76.988281 132.941406 76.164062 132.941406 75.65625 133.453125 L 64.472656 144.664062 C 63.960938 145.175781 63.960938 146 64.472656 146.511719 C 64.726562 146.765625 65.058594 146.894531 65.390625 146.894531 C 65.726562 146.894531 66.058594 146.765625 66.3125 146.511719 L 77.496094 135.296875 C 78.003906 134.789062 78.003906 133.960938 77.496094 133.453125 Z M 77.496094 133.453125 " fill-opacity="1" fill-rule="nonzero"/><path fill="rgb(0%, 0%, 0%)" d="M 52.410156 110.148438 C 52.921875 109.640625 52.921875 108.8125 52.410156 108.304688 C 51.902344 107.792969 51.078125 107.792969 50.570312 108.304688 L 39.386719 119.515625 C 38.878906 120.027344 38.878906 120.851562 39.386719 121.363281 C 39.640625 121.617188 39.972656 121.746094 40.304688 121.746094 C 40.640625 121.746094 40.972656 121.617188 41.226562 121.363281 Z M 52.410156 110.148438 " fill-opacity="1" fill-rule="nonzero"/><path fill="rgb(0%, 0%, 0%)" d="M 42.773438 132.386719 L 53.445312 121.6875 C 53.953125 121.179688 53.953125 120.351562 53.445312 119.839844 C 52.9375 119.332031 52.113281 119.332031 51.605469 119.839844 L 40.933594 130.539062 C 40.421875 131.050781 40.421875 131.875 40.933594 132.386719 C 41.1875 132.640625 41.519531 132.769531 41.851562 132.769531 C 42.1875 132.769531 42.519531 132.640625 42.773438 132.386719 Z M 42.773438 132.386719 " fill-opacity="1" fill-rule="nonzero"/><g fill="rgb(0%, 0%, 0%)" fill-opacity="1"><g transform="translate(0.0234415, 83.974381)"><g><path d="M 18.359375 0 L 13.1875 0 L 13.1875 -7.75 L 7.21875 -7.75 L 7.21875 0 L 2.0625 0 L 2.0625 -19.015625 L 7.21875 -19.015625 L 7.21875 -11.96875 L 13.1875 -11.96875 L 13.1875 -19.015625 L 18.359375 -19.015625 Z M 18.359375 0 "/></g></g></g><g fill="rgb(0%, 0%, 0%)" fill-opacity="1"><g transform="translate(20.430189, 83.974381)"><g><path d="M 13.71875 0 L 12.78125 -3.5625 L 6.609375 -3.5625 L 5.640625 0 L 0 0 L 6.203125 -19.09375 L 13.0625 -19.09375 L 19.34375 0 Z M 11.71875 -7.78125 L 10.90625 -10.90625 C 10.707031 -11.59375 10.472656 -12.488281 10.203125 -13.59375 C 9.929688 -14.695312 9.753906 -15.488281 9.671875 -15.96875 C 9.585938 -15.519531 9.429688 -14.785156 9.203125 -13.765625 C 8.972656 -12.753906 8.460938 -10.757812 7.671875 -7.78125 Z M 11.71875 -7.78125 "/></g></g></g><g fill="rgb(0%, 0%, 0%)" fill-opacity="1"><g transform="translate(39.770427, 83.974381)"><g><path d="M 10.53125 -15.078125 C 9.300781 -15.078125 8.34375 -14.578125 7.65625 -13.578125 C 6.976562 -12.578125 6.640625 -11.195312 6.640625 -9.4375 C 6.640625 -5.769531 8.03125 -3.9375 10.8125 -3.9375 C 11.65625 -3.9375 12.46875 -4.050781 13.25 -4.28125 C 14.039062 -4.519531 14.835938 -4.804688 15.640625 -5.140625 L 15.640625 -0.796875 C 14.046875 -0.0859375 12.25 0.265625 10.25 0.265625 C 7.375 0.265625 5.171875 -0.566406 3.640625 -2.234375 C 2.117188 -3.898438 1.359375 -6.304688 1.359375 -9.453125 C 1.359375 -11.421875 1.726562 -13.148438 2.46875 -14.640625 C 3.207031 -16.140625 4.269531 -17.289062 5.65625 -18.09375 C 7.050781 -18.894531 8.691406 -19.296875 10.578125 -19.296875 C 12.628906 -19.296875 14.59375 -18.847656 16.46875 -17.953125 L 14.890625 -13.90625 C 14.191406 -14.238281 13.488281 -14.515625 12.78125 -14.734375 C 12.082031 -14.960938 11.332031 -15.078125 10.53125 -15.078125 Z M 10.53125 -15.078125 "/></g></g></g><g fill="rgb(0%, 0%, 0%)" fill-opacity="1"><g transform="translate(57.055684, 83.974381)"><g><path d="M 18.296875 0 L 12.5 0 L 8.734375 -7.265625 L 7.21875 -6.359375 L 7.21875 0 L 2.0625 0 L 2.0625 -19.015625 L 7.21875 -19.015625 L 7.21875 -10.75 C 7.476562 -11.269531 8.003906 -12.082031 8.796875 -13.1875 L 12.78125 -19.015625 L 18.40625 -19.015625 L 12.40625 -10.5 Z M 18.296875 0 "/></g></g></g><g fill="rgb(0%, 0%, 0%)" fill-opacity="1"><g transform="translate(75.355425, 83.974381)"><g/></g></g><g fill="rgb(0%, 0%, 0%)" fill-opacity="1"><g transform="translate(82.274728, 83.974381)"><g><path d="M 7.1875 -6.921875 L 7.1875 0 L 2.0625 0 L 2.0625 -19.015625 L 8.28125 -19.015625 C 13.445312 -19.015625 16.03125 -17.140625 16.03125 -13.390625 C 16.03125 -11.191406 14.957031 -9.488281 12.8125 -8.28125 L 18.359375 0 L 12.53125 0 L 8.5 -6.921875 Z M 7.1875 -10.78125 L 8.15625 -10.78125 C 9.945312 -10.78125 10.84375 -11.578125 10.84375 -13.171875 C 10.84375 -14.472656 9.960938 -15.125 8.203125 -15.125 L 7.1875 -15.125 Z M 7.1875 -10.78125 "/></g></g></g><g fill="rgb(0%, 0%, 0%)" fill-opacity="1"><g transform="translate(100.301333, 83.974381)"><g><path d="M 19.84375 -9.53125 C 19.84375 -6.332031 19.054688 -3.898438 17.484375 -2.234375 C 15.921875 -0.566406 13.628906 0.265625 10.609375 0.265625 C 7.617188 0.265625 5.328125 -0.570312 3.734375 -2.25 C 2.148438 -3.925781 1.359375 -6.363281 1.359375 -9.5625 C 1.359375 -12.726562 2.144531 -15.144531 3.71875 -16.8125 C 5.300781 -18.476562 7.601562 -19.3125 10.625 -19.3125 C 13.65625 -19.3125 15.945312 -18.484375 17.5 -16.828125 C 19.0625 -15.171875 19.84375 -12.738281 19.84375 -9.53125 Z M 6.765625 -9.53125 C 6.765625 -5.851562 8.046875 -4.015625 10.609375 -4.015625 C 11.898438 -4.015625 12.859375 -4.460938 13.484375 -5.359375 C 14.117188 -6.253906 14.4375 -7.644531 14.4375 -9.53125 C 14.4375 -11.4375 14.117188 -12.84375 13.484375 -13.75 C 12.847656 -14.65625 11.894531 -15.109375 10.625 -15.109375 C 8.050781 -15.109375 6.765625 -13.25 6.765625 -9.53125 Z M 6.765625 -9.53125 "/></g></g></g><g fill="rgb(0%, 0%, 0%)" fill-opacity="1"><g transform="translate(121.527466, 83.974381)"><g><path d="M 10.53125 -15.078125 C 9.300781 -15.078125 8.34375 -14.578125 7.65625 -13.578125 C 6.976562 -12.578125 6.640625 -11.195312 6.640625 -9.4375 C 6.640625 -5.769531 8.03125 -3.9375 10.8125 -3.9375 C 11.65625 -3.9375 12.46875 -4.050781 13.25 -4.28125 C 14.039062 -4.519531 14.835938 -4.804688 15.640625 -5.140625 L 15.640625 -0.796875 C 14.046875 -0.0859375 12.25 0.265625 10.25 0.265625 C 7.375 0.265625 5.171875 -0.566406 3.640625 -2.234375 C 2.117188 -3.898438 1.359375 -6.304688 1.359375 -9.453125 C 1.359375 -11.421875 1.726562 -13.148438 2.46875 -14.640625 C 3.207031 -16.140625 4.269531 -17.289062 5.65625 -18.09375 C 7.050781 -18.894531 8.691406 -19.296875 10.578125 -19.296875 C 12.628906 -19.296875 14.59375 -18.847656 16.46875 -17.953125 L 14.890625 -13.90625 C 14.191406 -14.238281 13.488281 -14.515625 12.78125 -14.734375 C 12.082031 -14.960938 11.332031 -15.078125 10.53125 -15.078125 Z M 10.53125 -15.078125 "/></g></g></g><g fill="rgb(0%, 0%, 0%)" fill-opacity="1"><g transform="translate(138.812723, 83.974381)"><g><path d="M 18.296875 0 L 12.5 0 L 8.734375 -7.265625 L 7.21875 -6.359375 L 7.21875 0 L 2.0625 0 L 2.0625 -19.015625 L 7.21875 -19.015625 L 7.21875 -10.75 C 7.476562 -11.269531 8.003906 -12.082031 8.796875 -13.1875 L 12.78125 -19.015625 L 18.40625 -19.015625 L 12.40625 -10.5 Z M 18.296875 0 "/></g></g></g><g fill="rgb(0%, 0%, 0%)" fill-opacity="1"><g transform="translate(157.112464, 83.974381)"><g><path d="M 13.34375 0 L 2.0625 0 L 2.0625 -19.015625 L 13.34375 -19.015625 L 13.34375 -14.890625 L 7.1875 -14.890625 L 7.1875 -11.90625 L 12.890625 -11.90625 L 12.890625 -7.78125 L 7.1875 -7.78125 L 7.1875 -4.1875 L 13.34375 -4.1875 Z M 13.34375 0 "/></g></g></g><g fill="rgb(0%, 0%, 0%)" fill-opacity="1"><g transform="translate(171.731443, 83.974381)"><g><path d="M 10.453125 0 L 5.3125 0 L 5.3125 -14.8125 L 0.65625 -14.8125 L 0.65625 -19.015625 L 15.078125 -19.015625 L 15.078125 -14.8125 L 10.453125 -14.8125 Z M 10.453125 0 "/></g></g></g></svg>